<svg xmlns="http://www.w3.org/2000/svg" xmlns:xlink="http://www.w3.org/1999/xlink" contentStyleType="text/css" height="323px" preserveAspectRatio="none" style="width:1298px;height:323px;background:#FFFFFF;" version="1.1" viewBox="0 0 1298 323" width="1298px" zoomAndPan="magnify"><defs/><g><line style="stroke:#181818;stroke-width:0.5;stroke-dasharray:5.0,5.0;" x1="72" x2="72" y1="36.4883" y2="287.6621"/><line style="stroke:#181818;stroke-width:0.5;stroke-dasharray:5.0,5.0;" x1="225.5293" x2="225.5293" y1="36.4883" y2="287.6621"/><line style="stroke:#181818;stroke-width:0.5;stroke-dasharray:5.0,5.0;" x1="546.9673" x2="546.9673" y1="36.4883" y2="287.6621"/><line style="stroke:#181818;stroke-width:0.5;stroke-dasharray:5.0,5.0;" x1="714.8535" x2="714.8535" y1="36.4883" y2="287.6621"/><line style="stroke:#181818;stroke-width:0.5;stroke-dasharray:5.0,5.0;" x1="1055.6772" x2="1055.6772" y1="36.4883" y2="287.6621"/><line style="stroke:#181818;stroke-width:0.5;stroke-dasharray:5.0,5.0;" x1="1217.3022" x2="1217.3022" y1="36.4883" y2="287.6621"/><rect fill="#E2E2F0" height="30.4883" rx="2.5" ry="2.5" style="stroke:#181818;stroke-width:0.5;" width="135.5293" x="5" y="5"/><text fill="#000000" font-family="sans-serif" font-size="14" lengthAdjust="spacing" textLength="121.5293" x="12" y="25.5352">On-site Exporters</text><rect fill="#E2E2F0" height="30.4883" rx="2.5" ry="2.5" style="stroke:#181818;stroke-width:0.5;" width="135.5293" x="5" y="286.6621"/><text fill="#000000" font-family="sans-serif" font-size="14" lengthAdjust="spacing" textLength="121.5293" x="12" y="307.1973">On-site Exporters</text><rect fill="#E2E2F0" height="30.4883" rx="2.5" ry="2.5" style="stroke:#181818;stroke-width:0.5;" width="150.8008" x="150.5293" y="5"/><text fill="#000000" font-family="sans-serif" font-size="14" lengthAdjust="spacing" textLength="136.8008" x="157.5293" y="25.5352">On-site Prometheus</text><rect fill="#E2E2F0" height="30.4883" rx="2.5" ry="2.5" style="stroke:#181818;stroke-width:0.5;" width="150.8008" x="150.5293" y="286.6621"/><text fill="#000000" font-family="sans-serif" font-size="14" lengthAdjust="spacing" textLength="136.8008" x="157.5293" y="307.1973">On-site Prometheus</text><rect fill="#E2E2F0" height="30.4883" rx="2.5" ry="2.5" style="stroke:#181818;stroke-width:0.5;" width="108.2813" x="492.9673" y="5"/><text fill="#000000" font-family="sans-serif" font-size="14" lengthAdjust="spacing" textLength="94.2813" x="499.9673" y="25.5352">On-site Proxy</text><rect fill="#E2E2F0" height="30.4883" rx="2.5" ry="2.5" style="stroke:#181818;stroke-width:0.5;" width="108.2813" x="492.9673" y="286.6621"/><text fill="#000000" font-family="sans-serif" font-size="14" lengthAdjust="spacing" textLength="94.2813" x="499.9673" y="307.1973">On-site Proxy</text><rect fill="#E2E2F0" height="30.4883" rx="2.5" ry="2.5" style="stroke:#181818;stroke-width:0.5;" width="105.3145" x="662.8535" y="5"/><text fill="#000000" font-family="sans-serif" font-size="14" lengthAdjust="spacing" textLength="91.3145" x="669.8535" y="25.5352">Central Proxy</text><rect fill="#E2E2F0" height="30.4883" rx="2.5" ry="2.5" style="stroke:#181818;stroke-width:0.5;" width="105.3145" x="662.8535" y="286.6621"/><text fill="#000000" font-family="sans-serif" font-size="14" lengthAdjust="spacing" textLength="91.3145" x="669.8535" y="307.1973">Central Proxy</text><rect fill="#E2E2F0" height="30.4883" rx="2.5" ry="2.5" style="stroke:#181818;stroke-width:0.5;" width="156.625" x="977.6772" y="5"/><text fill="#000000" font-family="sans-serif" font-size="14" lengthAdjust="spacing" textLength="142.625" x="984.6772" y="25.5352">Central DB and Redis</text><rect fill="#E2E2F0" height="30.4883" rx="2.5" ry="2.5" style="stroke:#181818;stroke-width:0.5;" width="156.625" x="977.6772" y="286.6621"/><text fill="#000000" font-family="sans-serif" font-size="14" lengthAdjust="spacing" textLength="142.625" x="984.6772" y="307.1973">Central DB and Redis</text><rect fill="#E2E2F0" height="30.4883" rx="2.5" ry="2.5" style="stroke:#181818;stroke-width:0.5;" width="147.834" x="1144.3022" y="5"/><text fill="#000000" font-family="sans-serif" font-size="14" lengthAdjust="spacing" textLength="133.834" x="1151.3022" y="25.5352">Central Prometheus</text><rect fill="#E2E2F0" height="30.4883" rx="2.5" ry="2.5" style="stroke:#181818;stroke-width:0.5;" width="147.834" x="1144.3022" y="286.6621"/><text fill="#000000" font-family="sans-serif" font-size="14" lengthAdjust="spacing" textLength="133.834" x="1151.3022" y="307.1973">Central Prometheus</text><polygon fill="#181818" points="83.7646,63.7988,73.7646,67.7988,83.7646,71.7988,79.7646,67.7988" style="stroke:#181818;stroke-width:1.0;"/><line style="stroke:#181818;stroke-width:1.0;" x1="77.7646" x2="224.9297" y1="67.7988" y2="67.7988"/><text fill="#000000" font-family="sans-serif" font-size="13" lengthAdjust="spacing" textLength="92.3013" x="89.7646" y="63.0566">Scrape metrics</text><polygon fill="#181818" points="535.1079,93.1094,545.1079,97.1094,535.1079,101.1094,539.1079,97.1094" style="stroke:#181818;stroke-width:1.0;"/><line style="stroke:#181818;stroke-width:1.0;" x1="225.9297" x2="541.1079" y1="97.1094" y2="97.1094"/><text fill="#000000" font-family="sans-serif" font-size="13" lengthAdjust="spacing" textLength="297.1782" x="232.9297" y="92.3672">Push metrics data blob, include hotkey as label</text><line style="stroke:#181818;stroke-width:1.0;" x1="547.1079" x2="589.1079" y1="126.4199" y2="126.4199"/><line style="stroke:#181818;stroke-width:1.0;" x1="589.1079" x2="589.1079" y1="126.4199" y2="139.4199"/><line style="stroke:#181818;stroke-width:1.0;" x1="548.1079" x2="589.1079" y1="139.4199" y2="139.4199"/><polygon fill="#181818" points="558.1079,135.4199,548.1079,139.4199,558.1079,143.4199,554.1079,139.4199" style="stroke:#181818;stroke-width:1.0;"/><text fill="#000000" font-family="sans-serif" font-size="13" lengthAdjust="spacing" textLength="83.4399" x="554.1079" y="121.6777">Sign the blob</text><polygon fill="#181818" points="703.5107,164.7305,713.5107,168.7305,703.5107,172.7305,707.5107,168.7305" style="stroke:#181818;stroke-width:1.0;"/><line style="stroke:#181818;stroke-width:1.0;" x1="547.1079" x2="709.5107" y1="168.7305" y2="168.7305"/><text fill="#000000" font-family="sans-serif" font-size="13" lengthAdjust="spacing" textLength="144.4028" x="554.1079" y="163.9883">Push metrics data blob</text><polygon fill="#181818" points="1043.9897,194.041,1053.9897,198.041,1043.9897,202.041,1047.9897,198.041" style="stroke:#181818;stroke-width:1.0;"/><line style="stroke:#181818;stroke-width:1.0;" x1="715.5107" x2="1049.9897" y1="198.041" y2="198.041"/><text fill="#000000" font-family="sans-serif" font-size="13" lengthAdjust="spacing" textLength="268.3662" x="722.5107" y="193.2988">Keep a list of registered validators, cached</text><line style="stroke:#181818;stroke-width:1.0;" x1="715.5107" x2="757.5107" y1="227.3516" y2="227.3516"/><line style="stroke:#181818;stroke-width:1.0;" x1="757.5107" x2="757.5107" y1="227.3516" y2="240.3516"/><line style="stroke:#181818;stroke-width:1.0;" x1="716.5107" x2="757.5107" y1="240.3516" y2="240.3516"/><polygon fill="#181818" points="726.5107,236.3516,716.5107,240.3516,726.5107,244.3516,722.5107,240.3516" style="stroke:#181818;stroke-width:1.0;"/><text fill="#000000" font-family="sans-serif" font-size="13" lengthAdjust="spacing" textLength="326.479" x="722.5107" y="222.6094">Verify signature, verify "hotkey" label in each metric</text><polygon fill="#181818" points="1206.2192,265.6621,1216.2192,269.6621,1206.2192,273.6621,1210.2192,269.6621" style="stroke:#181818;stroke-width:1.0;"/><line style="stroke:#181818;stroke-width:1.0;" x1="715.5107" x2="1212.2192" y1="269.6621" y2="269.6621"/><text fill="#000000" font-family="sans-serif" font-size="13" lengthAdjust="spacing" textLength="144.4028" x="722.5107" y="264.9199">Push metrics data blob</text><!--SRC=[TP2zRiCW58LtFyMHP-S5CdJmpzJ1LYDrluQR69K20Xp5Rrzit2YgwWsEllEZwyX79PGZ4r7svXHKP7GFPtra7qfGG5Uu_w31ss-E4y-P6Wwfnx81_H-YOHCzwHUYEI3Q6cGaFbYgtDNMXr6lavhrNnG3Jc_ephW8JuwH2Az4o78_d37COVfL8IaIHct72ie8FKl6PECNBskWff5rqJ-T5tKpI7sROTURmyIYsO2sFkETsO6WLOYmLtY-fHTxbhYJLibXVQWWI4miTzkQ-ybUNHU4L4jnzbpXdfKoRoppmhGSdBpxX6T0kiRHjXy0]--></g></svg>